<svg width="156" height="48" viewBox="0 0 156 48" fill="none" xmlns="http://www.w3.org/2000/svg">
<path d="M40.6831 0.708008H9.22365C4.54205 0.708008 0.697266 4.06462 0.697266 8.19235V27.6743C0.697266 31.802 4.51943 35.1587 9.22365 35.1587H40.6831C45.3647 35.1587 49.2095 31.802 49.2095 27.6743V8.19235C49.1868 4.06462 45.3647 0.708008 40.6831 0.708008ZM37.0418 26.7444C37.0418 29.8969 34.1243 32.4371 30.5509 32.4371H19.3332C15.7824 32.4371 12.8423 29.8969 12.8423 26.7444C12.8423 20.4168 12.8423 15.4045 12.8423 9.09954C12.8423 5.94705 15.7598 3.40691 19.3332 3.40691C27.8596 3.40691 22.0472 3.40691 30.5509 3.40691C34.1017 3.40691 37.0418 5.94705 37.0418 9.09954C37.0418 15.4272 37.0418 20.4395 37.0418 26.7444Z" fill="white"/>
<path d="M54.1172 8.19236V27.6743C54.1172 31.8021 57.9393 35.1587 62.6436 35.1587C76.3039 35.1587 88.2227 35.1587 101.883 35.1587V19.3508V16.6066V16.5612H78.5655V19.3735H89.738V32.4824H72.7757C69.1797 32.4824 66.2848 29.8969 66.2848 26.7898C66.2848 20.4621 66.2848 15.4499 66.2848 9.14492C66.2848 6.03778 69.1797 3.45228 72.7757 3.45228H101.906V0.753384H62.6436C57.9393 0.708024 54.1172 4.06463 54.1172 8.19236Z" fill="white"/>
<path d="M146.777 0.708008H106.813V35.136C120.474 35.136 133.139 35.136 146.799 35.136C151.481 35.136 155.326 31.7794 155.326 27.6516V8.16967C155.303 4.06463 151.481 0.708008 146.777 0.708008ZM143.158 26.7444C143.158 29.8516 140.263 32.4371 136.667 32.4371H118.958V3.40691H136.667C140.263 3.40691 143.158 5.99241 143.158 9.09954C143.158 15.4272 143.158 20.4395 143.158 26.7444Z" fill="white"/>
<path d="M2.03163 46.9969C1.60192 46.7928 1.28529 46.498 1.03651 46.1351C0.810348 45.7722 0.697266 45.3186 0.697266 44.8197V44.7289C0.697266 44.23 0.810348 43.7991 1.03651 43.4135C1.26268 43.028 1.60192 42.7558 2.03163 42.5517C2.46134 42.3476 2.95891 42.2568 3.52432 42.2568C4.08973 42.2568 4.58728 42.3476 5.01699 42.5517C5.44671 42.7558 5.76334 43.0506 6.01212 43.4135C6.23829 43.7991 6.35137 44.23 6.35137 44.7289V44.8197C6.35137 45.3186 6.23829 45.7495 6.01212 46.1351C5.78596 46.5206 5.44671 46.7928 5.01699 46.9969C4.58728 47.201 4.08973 47.2918 3.52432 47.2918C2.95891 47.2918 2.46134 47.201 2.03163 46.9969ZM4.92653 46.0217C5.26578 45.7495 5.42409 45.3413 5.42409 44.8423V44.7289C5.42409 44.2073 5.26578 43.8217 4.92653 43.5269C4.58728 43.2321 4.13496 43.096 3.52432 43.096C2.91367 43.096 2.46134 43.2321 2.1221 43.5269C1.78285 43.8217 1.62453 44.2073 1.62453 44.7289V44.8423C1.62453 45.364 1.78285 45.7495 2.1221 46.0217C2.46134 46.2938 2.91367 46.4526 3.52432 46.4526C4.13496 46.4299 4.6099 46.2938 4.92653 46.0217Z" fill="white"/>
<path d="M9.15579 42.3252V46.3622H12.5935V47.2014H8.22852V42.3252H9.15579Z" fill="white"/>
<path d="M17.9986 42.3252V42.4613L15.8048 45.2963V47.2014H14.8775V45.2963L12.6611 42.4613V42.3252H13.7015L15.3299 44.4117L16.9583 42.3252H17.9986Z" fill="white"/>
<path d="M25.8466 47.2014H24.9193V43.5499L23.1326 47.2014H22.1827L20.396 43.5272V47.2014H19.4688V42.3252H20.7805L22.6577 46.1581L24.5348 42.3252H25.8466V47.2014Z" fill="white"/>
<path d="M30.9808 42.3252C31.5462 42.3252 31.9759 42.4613 32.3152 42.7334C32.6318 43.0056 32.7901 43.3685 32.7901 43.8447V43.9355C32.7901 44.4117 32.6318 44.7746 32.3152 45.0468C31.9985 45.3189 31.5462 45.455 30.9808 45.455H28.8775V47.224H27.9502V42.3479H30.9808V42.3252ZM31.614 44.4117C31.7724 44.2983 31.8402 44.1169 31.8402 43.9128V43.8447C31.8402 43.6179 31.7724 43.4592 31.614 43.3458C31.4557 43.2324 31.2296 43.1644 30.9582 43.1644H28.8775V44.5932H30.9582C31.2522 44.5932 31.4557 44.5251 31.614 44.4117Z" fill="white"/>
<path d="M47.2646 44.5704V47.2013H46.4278L46.3826 46.7023C45.9076 47.0879 45.2744 47.292 44.5054 47.292C43.9174 47.292 43.3972 47.2013 42.9675 46.9971C42.5378 46.793 42.1985 46.5209 41.9497 46.1353C41.7236 45.7724 41.5879 45.3188 41.5879 44.8199V44.7292C41.5879 44.2302 41.701 43.7993 41.9497 43.4137C42.1985 43.0509 42.5378 42.756 42.9675 42.5519C43.4198 42.3478 43.9174 42.2344 44.5054 42.2344C45.0482 42.2344 45.5231 42.3024 45.9529 42.4612C46.36 42.5973 46.6992 42.8241 46.9254 43.0962C47.1515 43.3684 47.2646 43.6859 47.2646 44.0261V44.0714H46.3147V44.0261C46.3147 43.8673 46.2243 43.7086 46.0659 43.5725C45.9076 43.4364 45.6815 43.323 45.4101 43.2323C45.1387 43.1416 44.8447 43.1189 44.5054 43.1189C43.8722 43.1189 43.3972 43.255 43.0353 43.5498C42.6961 43.822 42.5152 44.2302 42.5152 44.7292V44.8652C42.5152 45.3869 42.6735 45.7724 43.0127 46.0446C43.352 46.3167 43.8495 46.4528 44.4828 46.4528C44.8673 46.4528 45.2291 46.3848 45.5232 46.2714C45.8398 46.158 46.0886 45.9992 46.2921 45.7951V45.4095H43.8043V44.5704H47.2646Z" fill="white"/>
<path d="M53.597 44.9336C53.3256 45.1831 52.9638 45.3418 52.4888 45.3872L53.9589 47.0428V47.1789H52.8959L51.3128 45.3872H50.0689V47.1789H49.1416V42.3027H52.1722C52.7376 42.3027 53.1673 42.4388 53.5066 42.711C53.8232 42.9831 53.9815 43.3687 53.9815 43.845V43.9357C54.0041 44.3439 53.8684 44.6841 53.597 44.9336ZM53.0542 43.8223C53.0542 43.6182 52.9864 43.4367 52.8281 43.3233C52.6698 43.2099 52.4436 43.1419 52.1722 43.1419H50.0689V44.5707H52.1496C52.4436 44.5707 52.6471 44.5027 52.8054 44.3893C52.9638 44.2759 53.0316 44.0944 53.0316 43.8903V43.8223H53.0542Z" fill="white"/>
<path d="M57.0795 46.9969C56.6498 46.7928 56.3331 46.498 56.0844 46.1351C55.8582 45.7722 55.7451 45.3186 55.7451 44.8197V44.7289C55.7451 44.23 55.8582 43.7991 56.0844 43.4135C56.3105 43.028 56.6498 42.7558 57.0795 42.5517C57.5092 42.3476 58.0068 42.2568 58.5722 42.2568C59.1376 42.2568 59.6351 42.3476 60.0649 42.5517C60.4946 42.7558 60.8112 43.0506 61.06 43.4135C61.2861 43.7991 61.3992 44.23 61.3992 44.7289V44.8197C61.3992 45.3186 61.2861 45.7495 61.06 46.1351C60.8338 46.5206 60.4946 46.7928 60.0649 46.9969C59.6351 47.201 59.1376 47.2918 58.5722 47.2918C58.0068 47.2918 57.4866 47.201 57.0795 46.9969ZM59.9744 46.0217C60.3136 45.7495 60.472 45.3413 60.472 44.8423V44.7289C60.472 44.2073 60.3136 43.8217 59.9744 43.5269C59.6351 43.2321 59.1828 43.096 58.5722 43.096C57.9615 43.096 57.5092 43.2321 57.17 43.5269C56.8307 43.8217 56.6724 44.2073 56.6724 44.7289V44.8423C56.6724 45.364 56.8307 45.7495 57.17 46.0217C57.5092 46.2938 57.9615 46.4526 58.5722 46.4526C59.1828 46.4299 59.6351 46.2938 59.9744 46.0217Z" fill="white"/>
<path d="M64.3398 47.0199C63.9779 46.8385 63.7066 46.5663 63.503 46.2261C63.2995 45.8859 63.209 45.5004 63.209 45.0468V42.3252H64.1363V45.0695C64.1363 45.5004 64.272 45.8179 64.5207 46.0674C64.7695 46.3168 65.1314 46.4302 65.5837 46.4302C66.036 46.4302 66.3979 46.3168 66.6693 46.0674C66.9181 45.8179 67.0538 45.5004 67.0538 45.0695V42.3252H67.9811V45.0468C67.9811 45.5004 67.8906 45.8859 67.687 46.2261C67.4835 46.5663 67.2121 46.8158 66.8502 47.0199C66.4884 47.2014 66.0813 47.2921 65.6063 47.2921C65.1088 47.2921 64.6791 47.2014 64.3398 47.0199Z" fill="white"/>
<path d="M73.0249 42.3252C73.5903 42.3252 74.02 42.4613 74.3593 42.7334C74.6759 43.0056 74.8342 43.3685 74.8342 43.8447V43.9355C74.8342 44.4117 74.6759 44.7746 74.3593 45.0468C74.0426 45.3189 73.5903 45.455 73.0249 45.455H70.9216V47.224H69.9717V42.3479H73.0249V42.3252ZM73.6582 44.4117C73.8165 44.2983 73.8843 44.1169 73.8843 43.9128V43.8447C73.8843 43.6179 73.8165 43.4592 73.6582 43.3458C73.4998 43.2324 73.2737 43.1644 73.0023 43.1644H70.9216V44.5932H73.0023C73.2737 44.5932 73.4998 44.5251 73.6582 44.4117Z" fill="white"/>
<path d="M86.1871 42.3252C87.0917 42.3252 87.7702 42.5293 88.2225 42.9376C88.6749 43.3458 88.9237 43.9355 88.9237 44.7293V44.82C88.9237 45.6138 88.6975 46.2034 88.2225 46.6117C87.7702 47.0199 87.0917 47.224 86.1871 47.224H83.835V42.3479H86.1871V42.3252ZM87.5441 45.9993C87.8381 45.7499 87.9964 45.3643 87.9964 44.8427V44.7293C87.9964 43.686 87.4084 43.1644 86.2097 43.1644H84.7849V46.3849H86.2097C86.7977 46.3622 87.25 46.2488 87.5441 45.9993Z" fill="white"/>
<path d="M95.0301 42.3252V43.1644H91.7281V44.3437H94.8944V45.1829H91.7281V46.3849H95.0301V47.224H90.8008V42.3479H95.0301V42.3252Z" fill="white"/>
<path d="M101.928 42.3252V42.4613L99.7343 47.2014H98.6713L96.4775 42.4613V42.3252H97.4274L99.2141 46.3168L101.001 42.3252H101.928Z" fill="white"/>
<path d="M107.741 42.3252V43.1644H104.439V44.3437H107.605V45.1829H104.439V46.3849H107.741V47.224H103.512V42.3479H107.741V42.3252Z" fill="white"/>
<path d="M110.613 42.3252V46.3622H114.051V47.2014H109.686V42.3252H110.613Z" fill="white"/>
<path d="M116.516 46.9969C116.086 46.7928 115.77 46.498 115.521 46.1351C115.295 45.7722 115.182 45.3186 115.182 44.8197V44.7289C115.182 44.23 115.295 43.7991 115.521 43.4135C115.747 43.028 116.086 42.7558 116.516 42.5517C116.946 42.3476 117.443 42.2568 118.009 42.2568C118.574 42.2568 119.072 42.3476 119.501 42.5517C119.931 42.7558 120.248 43.0506 120.496 43.4135C120.723 43.7991 120.836 44.23 120.836 44.7289V44.8197C120.836 45.3186 120.723 45.7495 120.496 46.1351C120.27 46.5206 119.931 46.7928 119.501 46.9969C119.072 47.201 118.574 47.2918 118.009 47.2918C117.443 47.2918 116.946 47.201 116.516 46.9969ZM119.411 46.0217C119.75 45.7495 119.908 45.3413 119.908 44.8423V44.7289C119.908 44.2073 119.75 43.8217 119.411 43.5269C119.072 43.2321 118.619 43.096 118.009 43.096C117.398 43.096 116.946 43.2321 116.606 43.5269C116.267 43.8217 116.109 44.2073 116.109 44.7289V44.8423C116.109 45.364 116.267 45.7495 116.606 46.0217C116.946 46.2938 117.398 46.4526 118.009 46.4526C118.619 46.4299 119.094 46.2938 119.411 46.0217Z" fill="white"/>
<path d="M125.766 42.3252C126.331 42.3252 126.761 42.4613 127.1 42.7334C127.417 43.0056 127.575 43.3685 127.575 43.8447V43.9355C127.575 44.4117 127.417 44.7746 127.1 45.0468C126.784 45.3189 126.331 45.455 125.766 45.455H123.663V47.224H122.735V42.3479H125.766V42.3252ZM126.399 44.4117C126.558 44.2983 126.625 44.1169 126.625 43.9128V43.8447C126.625 43.6179 126.558 43.4592 126.399 43.3458C126.241 43.2324 126.015 43.1644 125.743 43.1644H123.663V44.5932H125.743C126.015 44.5932 126.241 44.5251 126.399 44.4117Z" fill="white"/>
<path d="M135.74 47.2014H134.813V43.5499L133.026 47.2014H132.076L130.29 43.5272V47.2014H129.362V42.3252H130.674L132.551 46.1581L134.428 42.3252H135.74V47.2014Z" fill="white"/>
<path d="M142.05 42.3252V43.1644H138.748V44.3437H141.914V45.1829H138.748V46.3849H142.05V47.224H137.82V42.3479H142.05V42.3252Z" fill="white"/>
<path d="M148.812 42.3252V47.2014H147.908L144.922 43.6179V47.2014H144.018V42.3252H144.922L147.908 45.8859V42.3252H148.812Z" fill="white"/>
<path d="M150.373 43.1644V42.3252H155.303V43.1644H153.291V47.2014H152.363V43.1644H150.373Z" fill="white"/>
</svg>
