<svg width="99" height="30" viewBox="0 0 99 30" fill="none" xmlns="http://www.w3.org/2000/svg">
<path d="M25.3417 0.248291H5.39683C2.42875 0.248291 -0.00878906 2.37415 -0.00878906 4.98837V17.327C-0.00878906 19.9412 2.41442 22.067 5.39683 22.067H25.3417C28.3098 22.067 30.7473 19.9412 30.7473 17.327V4.98837C30.733 2.37415 28.3098 0.248291 25.3417 0.248291ZM23.0332 16.738C23.0332 18.7346 21.1835 20.3434 18.918 20.3434H11.8061C9.55499 20.3434 7.69099 18.7346 7.69099 16.738C7.69099 12.7305 7.69099 9.55609 7.69099 5.56293C7.69099 3.56635 9.54066 1.9576 11.8061 1.9576C17.2118 1.9576 13.5268 1.9576 18.918 1.9576C21.1692 1.9576 23.0332 3.56635 23.0332 5.56293C23.0332 9.57045 23.0332 12.7449 23.0332 16.738Z" fill="white"/>
<path d="M33.8584 4.98837V17.327C33.8584 19.9412 36.2816 22.067 39.264 22.067C47.9245 22.067 55.4809 22.067 64.1413 22.067V12.0554V10.3174V10.2887H49.3583V12.0698H56.4415V20.3721H45.6877C43.4078 20.3721 41.5725 18.7346 41.5725 16.7668C41.5725 12.7592 41.5725 9.58482 41.5725 5.59166C41.5725 3.62381 43.4078 1.98632 45.6877 1.98632H64.1557V0.277021H39.264C36.2816 0.248293 33.8584 2.37415 33.8584 4.98837Z" fill="white"/>
<path d="M92.6037 0.248291H67.2676V22.0527C75.928 22.0527 83.9576 22.0527 92.6181 22.0527C95.5861 22.0527 98.0237 19.9268 98.0237 17.3126V4.97401C98.0093 2.37415 95.5861 0.248291 92.6037 0.248291ZM90.3096 16.738C90.3096 18.7059 88.4742 20.3434 86.1944 20.3434H74.9673V1.9576H86.1944C88.4742 1.9576 90.3096 3.59508 90.3096 5.56293C90.3096 9.57045 90.3096 12.7449 90.3096 16.738Z" fill="white"/>
<path d="M0.837182 29.565C0.56475 29.4357 0.364012 29.249 0.206289 29.0192C0.0629035 28.7893 -0.00878906 28.5021 -0.00878906 28.1861V28.1286C-0.00878906 27.8126 0.0629035 27.5397 0.206289 27.2955C0.349674 27.0513 0.56475 26.8789 0.837182 26.7497C1.10961 26.6204 1.42506 26.5629 1.78352 26.5629C2.14199 26.5629 2.45743 26.6204 2.72986 26.7497C3.00229 26.8789 3.20304 27.0657 3.36076 27.2955C3.50415 27.5397 3.57584 27.8126 3.57584 28.1286V28.1861C3.57584 28.5021 3.50415 28.775 3.36076 29.0192C3.21738 29.2633 3.00229 29.4357 2.72986 29.565C2.45743 29.6943 2.14199 29.7517 1.78352 29.7517C1.42506 29.7517 1.10961 29.6943 0.837182 29.565ZM2.67251 28.9473C2.88759 28.775 2.98796 28.5164 2.98796 28.2004V28.1286C2.98796 27.7982 2.88759 27.554 2.67251 27.3673C2.45743 27.1806 2.17066 27.0944 1.78352 27.0944C1.39638 27.0944 1.10961 27.1806 0.894535 27.3673C0.679457 27.554 0.579086 27.7982 0.579086 28.1286V28.2004C0.579086 28.5308 0.679457 28.775 0.894535 28.9473C1.10961 29.1197 1.39638 29.2203 1.78352 29.2203C2.17066 29.2059 2.47177 29.1197 2.67251 28.9473Z" fill="white"/>
<path d="M5.3535 26.6061V29.1628H7.53296V29.6943H4.76562V26.6061H5.3535Z" fill="white"/>
<path d="M10.9601 26.606V26.6922L9.56922 28.4877V29.6943H8.98134V28.4877L7.57617 26.6922V26.606H8.23574L9.26811 27.9275L10.3005 26.606H10.9601Z" fill="white"/>
<path d="M15.936 29.6943H15.3482V27.3817L14.2154 29.6943H13.6132L12.4805 27.3674V29.6943H11.8926V26.6061H12.7242L13.9143 29.0336L15.1044 26.6061H15.936V29.6943Z" fill="white"/>
<path d="M19.1909 26.6061C19.5494 26.6061 19.8218 26.6922 20.0369 26.8646C20.2376 27.037 20.338 27.2668 20.338 27.5684V27.6259C20.338 27.9275 20.2376 28.1574 20.0369 28.3297C19.8361 28.5021 19.5494 28.5883 19.1909 28.5883H17.8574V29.7087H17.2695V26.6204H19.1909V26.6061ZM19.5924 27.9275C19.6927 27.8557 19.7358 27.7408 19.7358 27.6115V27.5684C19.7358 27.4248 19.6927 27.3243 19.5924 27.2524C19.492 27.1806 19.3486 27.1375 19.1766 27.1375H17.8574V28.0425H19.1766C19.363 28.0425 19.492 27.9994 19.5924 27.9275Z" fill="white"/>
<path d="M29.514 28.0281V29.6943H28.9835L28.9548 29.3783C28.6537 29.6224 28.2522 29.7517 27.7647 29.7517C27.3919 29.7517 27.0621 29.6943 26.7897 29.565C26.5173 29.4357 26.3022 29.2633 26.1445 29.0192C26.0011 28.7893 25.915 28.5021 25.915 28.1861V28.1286C25.915 27.8126 25.9867 27.5397 26.1445 27.2955C26.3022 27.0657 26.5173 26.8789 26.7897 26.7497C27.0765 26.6204 27.3919 26.5486 27.7647 26.5486C28.1088 26.5486 28.4099 26.5917 28.6824 26.6922C28.9405 26.7784 29.1555 26.922 29.2989 27.0944C29.4423 27.2668 29.514 27.4679 29.514 27.6833V27.712H28.9118V27.6833C28.9118 27.5828 28.8544 27.4822 28.7541 27.396C28.6537 27.3099 28.5103 27.238 28.3383 27.1806C28.1662 27.1231 27.9798 27.1088 27.7647 27.1088C27.3632 27.1088 27.0621 27.1949 26.8327 27.3817C26.6176 27.554 26.5029 27.8126 26.5029 28.1286V28.2148C26.5029 28.5451 26.6033 28.7893 26.8184 28.9617C27.0334 29.1341 27.3489 29.2203 27.7504 29.2203C27.9941 29.2203 28.2235 29.1772 28.4099 29.1053C28.6107 29.0335 28.7684 28.933 28.8974 28.8037V28.5595H27.3202V28.0281H29.514Z" fill="white"/>
<path d="M33.5288 28.2579C33.3567 28.4159 33.1273 28.5164 32.8262 28.5451L33.7582 29.5937V29.6799H33.0843L32.0806 28.5451H31.292V29.6799H30.7041V26.5917H32.6255C32.9839 26.5917 33.2564 26.6778 33.4714 26.8502C33.6722 27.0226 33.7725 27.2668 33.7725 27.5684V27.6259C33.7869 27.8844 33.7008 28.0999 33.5288 28.2579ZM33.1847 27.554C33.1847 27.4248 33.1416 27.3099 33.0413 27.238C32.9409 27.1662 32.7975 27.1231 32.6255 27.1231H31.292V28.028H32.6111C32.7975 28.028 32.9266 27.985 33.0269 27.9131C33.1273 27.8413 33.1703 27.7264 33.1703 27.5971V27.554H33.1847Z" fill="white"/>
<path d="M35.7376 29.565C35.4651 29.4357 35.2644 29.249 35.1067 29.0192C34.9633 28.7894 34.8916 28.5021 34.8916 28.1861V28.1286C34.8916 27.8126 34.9633 27.5397 35.1067 27.2955C35.2501 27.0513 35.4651 26.879 35.7376 26.7497C36.01 26.6204 36.3255 26.563 36.6839 26.563C37.0424 26.563 37.3578 26.6204 37.6303 26.7497C37.9027 26.879 38.1034 27.0657 38.2612 27.2955C38.4045 27.5397 38.4762 27.8126 38.4762 28.1286V28.1861C38.4762 28.5021 38.4045 28.775 38.2612 29.0192C38.1178 29.2634 37.9027 29.4357 37.6303 29.565C37.3578 29.6943 37.0424 29.7518 36.6839 29.7518C36.3255 29.7518 35.9957 29.6943 35.7376 29.565ZM37.5729 28.9474C37.788 28.775 37.8884 28.5165 37.8884 28.2005V28.1286C37.8884 27.7983 37.788 27.5541 37.5729 27.3674C37.3578 27.1806 37.0711 27.0944 36.6839 27.0944C36.2968 27.0944 36.01 27.1806 35.7949 27.3674C35.5799 27.5541 35.4795 27.7983 35.4795 28.1286V28.2005C35.4795 28.5308 35.5799 28.775 35.7949 28.9474C36.01 29.1197 36.2968 29.2203 36.6839 29.2203C37.0711 29.2059 37.3578 29.1197 37.5729 28.9474Z" fill="white"/>
<path d="M40.34 29.5794C40.1106 29.4644 39.9385 29.2921 39.8095 29.0766C39.6804 28.8612 39.623 28.617 39.623 28.3297V26.606H40.2109V28.3441C40.2109 28.617 40.297 28.8181 40.4547 28.9761C40.6124 29.1341 40.8418 29.2059 41.1286 29.2059C41.4154 29.2059 41.6448 29.1341 41.8168 28.9761C41.9746 28.8181 42.0606 28.617 42.0606 28.3441V26.606H42.6485V28.3297C42.6485 28.617 42.5911 28.8612 42.4621 29.0766C42.333 29.2921 42.161 29.4501 41.9316 29.5794C41.7021 29.6943 41.444 29.7517 41.1429 29.7517C40.8275 29.7517 40.555 29.6943 40.34 29.5794Z" fill="white"/>
<path d="M45.8459 26.606C46.2043 26.606 46.4768 26.6922 46.6918 26.8646C46.8926 27.0369 46.9929 27.2668 46.9929 27.5684V27.6259C46.9929 27.9275 46.8926 28.1573 46.6918 28.3297C46.4911 28.5021 46.2043 28.5882 45.8459 28.5882H44.5124V29.7086H43.9102V26.6204H45.8459V26.606ZM46.2473 27.9275C46.3477 27.8557 46.3907 27.7408 46.3907 27.6115V27.5684C46.3907 27.4248 46.3477 27.3242 46.2473 27.2524C46.147 27.1806 46.0036 27.1375 45.8315 27.1375H44.5124V28.0424H45.8315C46.0036 28.0424 46.147 27.9993 46.2473 27.9275Z" fill="white"/>
<path d="M54.1904 26.6061C54.764 26.6061 55.1941 26.7353 55.4809 26.9939C55.7677 27.2524 55.9254 27.6259 55.9254 28.1286V28.1861C55.9254 28.6888 55.782 29.0623 55.4809 29.3208C55.1941 29.5794 54.764 29.7087 54.1904 29.7087H52.6992V26.6204H54.1904V26.6061ZM55.0507 28.933C55.2371 28.775 55.3375 28.5308 55.3375 28.2005V28.1286C55.3375 27.4679 54.9647 27.1375 54.2048 27.1375H53.3014V29.1772H54.2048C54.5776 29.1628 54.8643 29.091 55.0507 28.933Z" fill="white"/>
<path d="M59.7975 26.6061V27.1375H57.7041V27.8845H59.7115V28.4159H57.7041V29.1772H59.7975V29.7087H57.1162V26.6204H59.7975V26.6061Z" fill="white"/>
<path d="M64.1704 26.606V26.6922L62.7796 29.6943H62.1057L60.7148 26.6922V26.606H61.3171L62.4498 29.1341L63.5825 26.606H64.1704Z" fill="white"/>
<path d="M67.8551 26.606V27.1375H65.7617V27.8844H67.7691V28.4159H65.7617V29.1772H67.8551V29.7086H65.1738V26.6204H67.8551V26.606Z" fill="white"/>
<path d="M69.6768 26.6061V29.1628H71.8562V29.6943H69.0889V26.6061H69.6768Z" fill="white"/>
<path d="M73.4182 29.565C73.1458 29.4357 72.9451 29.249 72.7873 29.0192C72.644 28.7894 72.5723 28.5021 72.5723 28.1861V28.1286C72.5723 27.8126 72.644 27.5397 72.7873 27.2955C72.9307 27.0513 73.1458 26.879 73.4182 26.7497C73.6907 26.6204 74.0061 26.563 74.3646 26.563C74.723 26.563 75.0385 26.6204 75.3109 26.7497C75.5833 26.879 75.7841 27.0657 75.9418 27.2955C76.0852 27.5397 76.1569 27.8126 76.1569 28.1286V28.1861C76.1569 28.5021 76.0852 28.775 75.9418 29.0192C75.7984 29.2634 75.5833 29.4357 75.3109 29.565C75.0385 29.6943 74.723 29.7518 74.3646 29.7518C74.0061 29.7518 73.6907 29.6943 73.4182 29.565ZM75.2536 28.9474C75.4686 28.775 75.569 28.5165 75.569 28.2005V28.1286C75.569 27.7983 75.4686 27.5541 75.2536 27.3674C75.0385 27.1806 74.7517 27.0944 74.3646 27.0944C73.9774 27.0944 73.6907 27.1806 73.4756 27.3674C73.2605 27.5541 73.1601 27.7983 73.1601 28.1286V28.2005C73.1601 28.5308 73.2605 28.775 73.4756 28.9474C73.6907 29.1197 73.9774 29.2203 74.3646 29.2203C74.7517 29.2059 75.0528 29.1197 75.2536 28.9474Z" fill="white"/>
<path d="M79.2827 26.6061C79.6412 26.6061 79.9136 26.6922 80.1287 26.8646C80.3294 27.037 80.4298 27.2668 80.4298 27.5684V27.6259C80.4298 27.9275 80.3294 28.1574 80.1287 28.3297C79.9279 28.5021 79.6412 28.5883 79.2827 28.5883H77.9492V29.7087H77.3613V26.6204H79.2827V26.6061ZM79.6842 27.9275C79.7845 27.8557 79.8276 27.7408 79.8276 27.6115V27.5684C79.8276 27.4248 79.7845 27.3243 79.6842 27.2524C79.5838 27.1806 79.4404 27.1375 79.2683 27.1375H77.9492V28.0425H79.2683C79.4404 28.0425 79.5838 27.9994 79.6842 27.9275Z" fill="white"/>
<path d="M85.606 29.6943H85.0181V27.3817L83.8853 29.6943H83.2831L82.1504 27.3674V29.6943H81.5625V26.6061H82.3941L83.5842 29.0336L84.7743 26.6061H85.606V29.6943Z" fill="white"/>
<path d="M89.6071 26.606V27.1375H87.5137V27.8844H89.521V28.4159H87.5137V29.1772H89.6071V29.7086H86.9258V26.6204H89.6071V26.606Z" fill="white"/>
<path d="M93.8942 26.606V29.6943H93.3207L91.428 27.4248V29.6943H90.8545V26.606H91.428L93.3207 28.8612V26.606H93.8942Z" fill="white"/>
<path d="M94.8838 27.1375V26.6061H98.0096V27.1375H96.7335V29.6943H96.1456V27.1375H94.8838Z" fill="white"/>
</svg>
