<svg width="651" height="168" viewBox="0 0 651 168" fill="none" xmlns="http://www.w3.org/2000/svg">
<path d="M152.41 80.8554H169.268V126.296H199.75V141.289H169.268V164.355H152.41V141.289H0V129.756L115 2.8913H136.246L24.0162 126.296H152.41V80.8554Z" fill="white"/>
<path d="M324.505 0.123352C397.015 0.123352 423.803 35.8761 423.803 83.6234C423.803 131.14 397.015 167.123 324.505 167.123C251.995 167.123 225.207 131.14 225.207 83.6234C225.207 35.8761 251.995 0.123352 324.505 0.123352ZM324.505 151.208C385.007 151.208 406.714 122.375 406.714 83.6234C406.714 44.872 385.007 16.0391 324.505 16.0391C264.003 16.0391 242.065 44.872 242.065 83.6234C242.065 122.375 264.003 151.208 324.505 151.208Z" fill="white"/>
<path d="M603.66 80.8554H620.518V126.296H651V141.289H620.518V164.355H603.66V141.289H451.25V129.756L566.251 2.8913H587.496L475.266 126.296H603.66V80.8554Z" fill="white"/>
</svg>
